<?xml version="1.0" encoding="UTF-8" standalone="no"?>
<!-- Created with Inkscape (http://www.inkscape.org/) -->

<svg
   width="155.20419mm"
   height="130.50626mm"
   viewBox="0 0 155.20419 130.50626"
   version="1.1"
   id="svg5"
   inkscape:version="1.1 (c68e22c387, 2021-05-23)"
   sodipodi:docname="logo.svg"
   xmlns:inkscape="http://www.inkscape.org/namespaces/inkscape"
   xmlns:sodipodi="http://sodipodi.sourceforge.net/DTD/sodipodi-0.dtd"
   xmlns="http://www.w3.org/2000/svg"
   xmlns:svg="http://www.w3.org/2000/svg">
  <sodipodi:namedview
     id="namedview7"
     pagecolor="#505050"
     bordercolor="#eeeeee"
     borderopacity="1"
     inkscape:pageshadow="0"
     inkscape:pageopacity="0"
     inkscape:pagecheckerboard="0"
     inkscape:document-units="mm"
     showgrid="false"
     inkscape:zoom="0.64"
     inkscape:cx="-188.28125"
     inkscape:cy="157.03125"
     inkscape:window-width="1920"
     inkscape:window-height="1013"
     inkscape:window-x="-9"
     inkscape:window-y="-9"
     inkscape:window-maximized="1"
     inkscape:current-layer="layer1"
     units="mm"
     width="147mm"
     fit-margin-top="0"
     fit-margin-left="0"
     fit-margin-right="0"
     fit-margin-bottom="0" />
  <defs
     id="defs2" />
  <g
     inkscape:label="Warstwa 1"
     inkscape:groupmode="layer"
     id="layer1"
     transform="translate(-34.07235,-91.405731)">
    <rect
       style="fill:#000000;fill-opacity:0.955823;stroke:none;stroke-width:1.02054"
       id="rect846"
       width="75.813118"
       height="130.50626"
       x="34.07235"
       y="91.405731" />
    <rect
       style="fill:#ffe600;fill-opacity:1;stroke:none;stroke-width:1"
       id="rect1516-3-7"
       width="14.417475"
       height="19.824028"
       x="43.880543"
       y="162.49332" />
    <rect
       style="fill:#000000;fill-opacity:0.955823;stroke:none;stroke-width:1.04747"
       id="rect870"
       width="75.983856"
       height="100.26404"
       x="113.29269"
       y="121.39308" />
    <rect
       style="fill:#ffe600;fill-opacity:1;stroke:none;stroke-width:1"
       id="rect1516"
       width="14.417475"
       height="19.824028"
       x="43.612865"
       y="104.73408" />
    <rect
       style="fill:#283eb9;fill-opacity:1;stroke:none;stroke-width:1"
       id="rect1516-5"
       width="14.417475"
       height="19.824028"
       x="65.512054"
       y="105.22195" />
    <rect
       style="fill:#283eb9;fill-opacity:1;stroke:none;stroke-width:1"
       id="rect1516-5-0"
       width="14.417475"
       height="19.824028"
       x="87.411247"
       y="104.97801" />
    <path
       style="fill:#ffe600;fill-opacity:1;stroke-width:4.17583"
       d="m 334.21844,199.97864 v -37.01262 h 26.5165 26.51651 v 37.01262 37.01262 h -26.51651 -26.5165 z"
       id="path6668"
       transform="matrix(0.26458333,0,0,0.26458333,34.07235,91.405731)" />
    <path
       style="fill:#ffe600;fill-opacity:1;stroke-width:4.17583"
       d="m 417.08252,201.08349 v -37.01262 h 26.5165 26.5165 v 37.01262 37.01262 h -26.5165 -26.5165 z"
       id="path6707"
       transform="matrix(0.26458333,0,0,0.26458333,34.07235,91.405731)" />
    <path
       style="fill:#ffe600;fill-opacity:1;stroke-width:4.17583"
       d="m 499.94659,201.08349 v -37.01262 h 26.51651 26.5165 v 37.01262 37.01262 h -26.5165 -26.51651 z"
       id="path6746"
       transform="matrix(0.26458333,0,0,0.26458333,34.07235,91.405731)" />
    <path
       style="fill:#ffe600;fill-opacity:1;stroke-width:4.17583"
       d="m 337.533,419.84465 v -37.01262 h 26.51651 26.5165 v 37.01262 37.01262 H 364.04951 337.533 Z"
       id="path6590"
       transform="matrix(0.26458333,0,0,0.26458333,34.07235,91.405731)" />
    <path
       style="fill:#ffe600;fill-opacity:1;stroke-width:4.17583"
       d="m 335.32329,308.25436 v -37.01262 h 26.51651 26.5165 v 37.01262 37.01262 h -26.5165 -26.51651 z"
       id="path6629"
       transform="matrix(0.26458333,0,0,0.26458333,34.07235,91.405731)" />
    <rect
       style="fill:#283eb9;fill-opacity:1;stroke:none;stroke-width:1"
       id="rect1516-5-29-3"
       width="14.417475"
       height="19.824028"
       x="144.52791"
       y="162.88808" />
    <path
       style="fill:#ffe600;fill-opacity:1;stroke-width:4.17583"
       d="m 420.39708,419.29222 v -36.46019 h 26.5165 26.51651 v 36.46019 36.4602 h -26.51651 -26.5165 z"
       id="path6551"
       transform="matrix(0.26458333,0,0,0.26458333,34.07235,91.405731)" />
    <path
       style="fill:#ffe600;fill-opacity:1;stroke-width:4.17583"
       d="m 499.94659,420.94951 v -37.01262 h 26.51651 26.5165 v 37.01262 37.01262 h -26.5165 -26.51651 z"
       id="path6512"
       transform="matrix(0.26458333,0,0,0.26458333,34.07235,91.405731)" />
    <rect
       style="fill:#283eb9;fill-opacity:1;stroke:none;stroke-width:1"
       id="rect1516-5-0-2-5-4-9"
       width="14.417475"
       height="19.824028"
       x="166.17221"
       y="162.63319" />
    <path
       style="fill:#ffe600;fill-opacity:1;stroke-width:4.17583"
       d="M 38.117475,195.55922 V 158.5466 h 26.516504 26.516505 v 37.01262 37.01262 H 64.633979 38.117475 Z"
       id="path6473"
       transform="matrix(0.26458333,0,0,0.26458333,34.07235,91.405731)" />
    <rect
       style="fill:#283eb9;fill-opacity:1;stroke:none;stroke-width:1"
       id="rect1516-5-2"
       width="14.417475"
       height="19.824028"
       x="65.779732"
       y="133.60559" />
    <rect
       style="fill:#283eb9;fill-opacity:1;stroke:none;stroke-width:1"
       id="rect1516-5-0-6"
       width="14.417475"
       height="19.824028"
       x="87.678925"
       y="133.36165" />
    <rect
       style="fill:#283eb9;fill-opacity:1;stroke:none;stroke-width:1"
       id="rect1516-5-2-9"
       width="14.417475"
       height="19.824028"
       x="65.779732"
       y="162.98119" />
    <rect
       style="fill:#283eb9;fill-opacity:1;stroke:none;stroke-width:1"
       id="rect1516-5-0-6-8"
       width="14.417475"
       height="19.824028"
       x="87.678925"
       y="162.73724" />
    <rect
       style="fill:#ffe600;fill-opacity:1;stroke:none;stroke-width:1"
       id="rect1516-3-7-3"
       width="14.417475"
       height="19.824028"
       x="43.880547"
       y="192.40958" />
    <path
       style="fill:#ffe600;fill-opacity:1;stroke-width:4.17583"
       d="m 119.8767,420.94951 v -37.01262 h 27.06893 27.06893 v 37.01262 37.01262 H 146.94563 119.8767 Z"
       id="path6356"
       transform="matrix(0.26458333,0,0,0.26458333,34.07235,91.405731)" />
    <path
       style="fill:#0028b9;fill-opacity:1;stroke-width:2.08791"
       d="m 203.01699,420.12087 v -37.01263 h 26.79271 26.79272 v 37.01263 37.01262 H 229.8097 203.01699 Z"
       id="path6434"
       transform="matrix(0.26458333,0,0,0.26458333,34.07235,91.405731)" />
    <path
       style="fill:#ffe600;fill-opacity:1;stroke-width:0.738189"
       d="m 202.63672,420.11719 v -37.40235 h 27.14844 27.14843 v 37.40235 37.40234 h -27.14843 -27.14844 z"
       id="path6395"
       transform="matrix(0.26458333,0,0,0.26458333,34.07235,91.405731)" />
  </g>
</svg>
